HIERARCHY
ROOT Hips
{
  OFFSET 0 0 0
  CHANNELS 6 Xposition Yposition Zposition Zrotation Yrotation Xrotation
  JOINT LeftThigh
  {
    OFFSET 8.509551 0 -5.988202
    CHANNELS 3 Zrotation Yrotation Xrotation
    JOINT LeftLeg
    {
      OFFSET 0 0 -42.862921
      CHANNELS 3 Zrotation Yrotation Xrotation
      JOINT LeftFoot
      {
        OFFSET 0 0 -39.825843
        CHANNELS 3 Zrotation Yrotation Xrotation
        End Site
        {
          OFFSET 0 -13.487303 -5.068483
        }
      }
    }
  }
  JOINT RightThigh
  {
    OFFSET -8.509551 0 -5.988202
    CHANNELS 3 Zrotation Yrotation Xrotation
    JOINT RightLeg
    {
      OFFSET 0 0 -42.862921
      CHANNELS 3 Zrotation Yrotation Xrotation
      JOINT RightFoot
      {
        OFFSET 0 0 -39.825843
        CHANNELS 3 Zrotation Yrotation Xrotation
        End Site
        {
          OFFSET 0 -13.487303 -5.068483
        }
      }
    }
  }
  JOINT SpineLow
  {
    OFFSET 0 0 4.775281
    CHANNELS 3 Zrotation Yrotation Xrotation
    JOINT SpineMid
    {
      OFFSET 0 0 13.052753
      CHANNELS 3 Zrotation Yrotation Xrotation
      JOINT Chest
      {
        OFFSET 0 0 13.052753
        CHANNELS 3 Zrotation Yrotation Xrotation
        JOINT LeftShoulder
        {
          OFFSET 7.640449 1.432584 9.550562
          CHANNELS 3 Zrotation Yrotation Xrotation
          JOINT LeftArm
          {
            OFFSET 9.264045 0 4.297753
            CHANNELS 3 Zrotation Yrotation Xrotation
            JOINT LeftForearm
            {
              OFFSET 0 0 26.078764
              CHANNELS 3 Zrotation Yrotation Xrotation
              JOINT LeftHand
              {
                OFFSET 0 0 25.497135
                CHANNELS 3 Zrotation Yrotation Xrotation
              }
            }
          }
        }
        JOINT RightShoulder
        {
          OFFSET -7.640449 1.432584 9.550562
          CHANNELS 3 Zrotation Yrotation Xrotation
          JOINT RightArm
          {
            OFFSET -9.264045 0 4.297753
            CHANNELS 3 Zrotation Yrotation Xrotation
            JOINT RightForearm
            {
              OFFSET 0 0 -26.078764
              CHANNELS 3 Zrotation Yrotation Xrotation
              JOINT RightHand
              {
                OFFSET 0 0 -25.497135
                CHANNELS 3 Zrotation Yrotation Xrotation
              }
            }
          }
        }
        JOINT Neck
        {
          OFFSET 0 0 15.280899
          CHANNELS 3 Zrotation Yrotation Xrotation
          JOINT Head
          {
            OFFSET 0 0 11.460674
            CHANNELS 3 Zrotation Yrotation Xrotation
            End Site
            {
              OFFSET 0 0 7.325843
            }
          }
        }
      }
    }
  }
}
MOTION
Frames: 12
Frame Time: 0.01
258.302614224666  88.582893  29.8316938739093  -172.18546  -13.580115  78.788053  15.622389  -25.585428  -41.265314  0.220265  10.99879  15.413744  -33.959755  4.145791  1.764352  -10.355615  3.83596  -8.771192  7.705208  4.368009  54.572672  -24.043993  -13.461186  4.939977  1.31461  -1.187836  0.869483  3.552795  -3.29254  2.312999  3.552795  -3.292539  2.312998  -13.862109  5.468015  7.335162  131.733853  79.717646  -130.116758  100.663449  69.761588  -148.300669  85.819028  -21.910345  -51.651753  12.375326  -6.95332  10.116627  133.031177  85.262079  63.707963  -23.88555  5.277992  -35.818377  81.86545  13.421769  -18.570848  4.239974  -9.436591  6.043317  3.267191  -7.036856  4.588428  
257.303896224666  88.326637  28.2703458739093  -172.866183  -10.095502  78.440807  15.605411  -28.278539  -39.482521  0.717073  12.135314  16.121519  -33.421323  4.004334  1.387047  -10.684132  4.648693  -8.085331  9.75733  4.403003  54.662971  -23.709835  -13.707035  4.677903  1.666829  -1.069616  0.896842  4.518528  -2.98346  2.377838  4.518528  -2.98346  2.377838  -14.843701  4.828176  7.71337  136.407208  78.679613  -128.980917  96.985257  70.819581  -152.124365  86.013383  -19.779348  -52.009022  10.215195  -7.578719  9.866078  118.21337  83.381773  46.292703  -27.697454  4.665798  -39.516532  82.482547  12.449428  -16.232674  4.575699  -9.798049  6.295755  3.525609  -7.302951  4.784535  
256.143770224666  88.001305  26.5734548739093  -173.568695  -6.381539  78.18635  15.471536  -30.467607  -38.13759  2.37028  12.753168  18.089702  -33.218235  3.636188  0.814252  -11.071099  5.708122  -7.756648  11.842605  4.427321  54.859307  -23.234521  -14.105205  4.63198  2.009974  -0.950887  0.890038  5.46093  -2.670658  2.35305  5.46093  -2.670658  2.35305  -15.700332  4.257155  8.084768  139.982887  77.509556  -129.41141  91.732007  72.153063  -157.502174  86.311889  -18.00589  -51.74604  8.072482  -8.234496  9.689896  111.061449  81.024321  36.52453  -30.894056  3.943189  -43.661206  82.770886  11.518063  -14.340236  5.072982  -10.153346  6.608799  3.906067  -7.562001  5.029  
254.950014224666  87.677376  24.7130038739093  -174.325076  -2.509782  78.054952  15.252612  -32.330882  -36.811461  4.823739  13.017015  20.508492  -32.018815  2.716842  0.83192  -11.641469  7.012628  -7.845129  13.995976  4.465048  55.113071  -22.257046  -14.849672  4.90068  2.26969  -0.855387  0.849178  6.17557  -2.415094  2.239452  6.175571  -2.415094  2.239452  -15.928573  3.932401  8.391964  142.740666  76.311158  -131.175866  83.95265  73.516952  -165.218199  86.73633  -16.615584  -51.344537  6.401533  -8.688924  9.630559  107.753466  78.329789  30.692541  -33.33293  3.359164  -48.217818  82.676819  10.513745  -13.143513  5.965222  -10.359393  7.024505  4.582575  -7.703293  5.356605  
253.789034224666  87.329468  22.7301398739093  -175.12997  1.513345  78.102847  15.154638  -34.137652  -35.08711  9.589521  13.027908  22.548148  -32.443838  2.536389  1.059255  -12.436881  8.489878  -8.495702  16.228028  4.473864  55.452004  -20.657401  -15.805464  5.259779  2.419977  -0.809917  0.765015  6.590794  -2.287549  2.008409  6.590794  -2.287549  2.00841  -15.335264  3.896108  8.68861  144.840462  75.016023  -133.74115  71.884744  74.893866  -176.990768  87.219806  -15.805286  -51.338085  5.385519  -8.812325  9.592961  106.180549  75.253038  26.827959  -35.013259  3.071283  -53.216454  82.250447  9.343255  -12.823959  7.331885  -10.319477  7.605281  5.614606  -7.651385  5.814392  
252.666445224666  86.930893  20.5940998739093  -175.94317  5.95528  78.605945  16.361098  -34.56347  -33.760278  13.788937  11.038419  21.837386  -33.374413  7.431755  4.239695  -13.34662  9.875118  -10.001893  18.656088  4.373856  55.810242  -18.823044  -16.942577  5.531527  2.506667  -0.817293  0.654361  6.831558  -2.298841  1.70238  6.831558  -2.298841  1.70238  -13.954985  4.100118  8.62725  146.61751  73.723679  -136.862006  54.84706  75.662274  166.56535  88.08461  -15.691343  -52.190543  5.139172  -8.662314  9.152465  105.36322  71.825914  24.202626  -36.027628  2.956287  -58.703716  81.595028  8.078771  -13.263351  9.215916  -9.998758  8.106774  7.029531  -7.380723  6.218334  
251.614748224666  86.475388  18.2942948739093  -176.926689  11.141803  79.277932  21.652323  -33.476242  -33.762838  11.432175  10.196061  20.407432  -30.575594  11.651077  5.906194  -13.874875  11.209815  -12.214865  21.178224  4.040866  56.258217  -17.230394  -18.043935  5.811126  2.705898  -0.825443  0.550889  7.379825  -2.314493  1.41186  7.379825  -2.314494  1.41186  -12.575754  4.332679  8.317641  147.978514  72.550464  -140.51841  33.350004  75.047426  146.103264  89.657661  -15.788627  -54.240454  4.874661  -8.536901  8.502177  104.593257  68.31172  22.340524  -36.451951  2.690226  -64.699454  80.771364  6.927659  -14.168966  11.195134  -9.561143  8.392805  8.510964  -7.021891  6.459041  
250.659426224666  85.974648  15.9609898739093  -178.160826  15.675754  80.269005  29.044524  -30.78782  -34.903171  4.700948  11.174889  19.83402  -26.704011  13.603688  5.622326  -15.380709  12.676934  -15.402695  23.689087  3.378889  56.778727  -16.231008  -18.877133  6.164917  2.846022  -0.739037  0.44293  7.767811  -2.068881  1.122207  7.767811  -2.068881  1.122207  -11.503196  4.394417  7.737578  149.290675  71.54096  -144.417523  11.727405  71.979615  126.007533  91.930443  -15.580992  -57.784249  4.418873  -8.596065  7.779119  103.384858  65.081878  20.987986  -36.248796  1.903875  -71.232344  79.811269  5.935868  -15.124655  13.229209  -9.135272  8.411617  10.029604  -6.675001  6.498108  
249.919863224666  85.474144  13.8431688739093  -179.456995  18.799244  81.085469  33.486853  -28.344889  -35.98558  0.629617  12.240253  21.34783  -24.02839  13.261704  5.243553  -18.44681  13.986637  -18.943054  26.281316  2.36743  57.353711  -16.087033  -19.422375  6.592396  2.759936  -0.62339  0.342565  7.536605  -1.740452  0.86406  7.536604  -1.740452  0.86406  -10.580602  4.641417  7.308845  150.665983  70.828093  -148.529523  -5.709507  66.068238  110.585303  94.52554  -14.637694  -62.840455  4.152883  -8.727524  7.392806  100.701799  62.178691  19.696166  -34.990947  0.211136  -78.389263  78.777771  5.151826  -15.838741  15.224058  -8.744496  8.447522  11.519947  -6.354469  6.54744  
249.455477224666  84.937721  11.8711378739093  179.265038  21.718982  81.072877  36.144068  -28.092156  -37.004832  -0.090114  14.114654  24.749436  -22.598823  12.521656  4.345259  -21.512144  14.976676  -22.045434  28.760973  1.036235  58.150608  -17.069037  -19.748464  7.026889  2.629417  -0.51753  0.334613  7.180985  -1.44902  0.857289  7.180985  -1.44902  0.857289  -9.712184  4.692081  7.187021  152.489805  70.230144  -152.253556  -18.180402  57.636341  100.501604  97.361669  -12.725601  -69.14581  4.125545  -9.062323  7.638886  97.271183  59.720688  19.142099  -32.830584  -2.521499  -85.86659  77.461711  4.735673  -16.055727  17.220449  -8.46115  8.445431  13.012211  -6.115438  6.568679  
249.322603224666  84.352158  10.1157598739093  178.115093  24.433229  80.928312  38.606187  -28.461622  -38.40955  1.025454  15.846761  28.657073  -22.405734  12.062855  3.481091  -24.443365  15.354245  -25.159182  30.694986  -0.256716  59.24135  -18.979211  -20.042912  7.178852  2.487609  -0.421438  0.362667  6.793807  -1.187808  0.946882  6.793807  -1.187808  0.946882  -9.063851  4.39556  7.122418  155.438101  69.604686  -154.782475  -26.560272  47.118813  94.517535  99.195733  -9.338325  -75.902847  4.35244  -9.287307  8.22976  92.160947  57.827651  18.621755  -29.138713  -6.428552  -93.602689  75.679005  4.773459  -15.557538  19.189499  -8.205627  8.228768  14.481482  -5.904385  6.427784  
249.623659224666  83.837723  8.5074528739093  177.182657  27.131151  81.028409  40.900839  -29.409415  -39.976669  3.010675  17.118758  32.389444  -22.618628  12.34297  2.232154  -27.002289  15.016968  -28.241912  31.671535  -1.128762  60.424336  -21.289385  -20.105775  7.064938  2.339141  -0.354002  0.411213  6.38803  -1.006304  1.088661  6.38803  -1.006304  1.088661  -8.559368  3.974028  6.712012  159.391271  68.998239  -156.27755  -31.715789  35.761266  90.818632  99.954771  -4.691674  -82.3457  4.884449  -9.278939  8.662819  87.056069  56.262502  19.12487  -24.20843  -11.34379  -101.147104  73.122214  5.30527  -14.283484  21.170654  -7.842821  7.856825  15.957382  -5.61935  6.165469  
